<svg width="64" height="64" viewBox="0 0 64 64" fill="none" xmlns="http://www.w3.org/2000/svg">
  <rect width="64" height="64" rx="16" fill="#F8FAFC"/>
  <path d="M14 42.5C17.8 33.2 22.6 26.1 28.4 21.2C30.1 19.7 32.7 19.7 34.4 21.2C40.4 26.2 45.6 33.3 50 42.5H14Z" fill="#E0F2FE"/>
  <path d="M16 42.5C19.3 35.5 23.4 30.1 28.1 26.2C29 25.5 30.2 25.6 31 26.4C33.9 29.2 36.3 32.3 38.2 35.8C39.2 33.9 40.4 32.3 41.8 31C42.5 30.4 43.6 30.4 44.2 31.1C46.4 33.4 48.4 37.2 50 42.5H16Z" fill="#0891B2"/>
  <path d="M14.5 43H49.5" stroke="#0F172A" stroke-width="3" stroke-linecap="round"/>
  <path d="M23 45.5H41" stroke="#67E8F9" stroke-width="3" stroke-linecap="round"/>
  <circle cx="43.5" cy="19.5" r="4.5" fill="#22D3EE"/>
</svg>
