<svg width="160" height="160" viewBox="0 0 160 160" fill="none" xmlns="http://www.w3.org/2000/svg">
  <rect x="8" y="8" width="144" height="144" rx="36" fill="#F8FAFC"/>
  <rect x="8" y="8" width="144" height="144" rx="36" stroke="#BAE6FD" stroke-width="4"/>
  <path d="M31 106C41.4 80.2 54.9 60.7 71.4 47.5C76.2 43.7 83.1 43.9 87.7 47.9C104.1 62.5 117.9 81.8 129 106H31Z" fill="#E0F2FE"/>
  <path d="M37 106C46.2 87.2 57.4 72.7 70.7 62.4C73.7 60.1 78 60.5 80.5 63.3C88.1 71.9 94 81.9 98.2 93.2C101.5 86.2 105.2 80.7 109.5 76.6C111.8 74.4 115.6 74.5 117.6 77C122.4 82.9 126.6 92.6 130 106H37Z" fill="#0891B2"/>
  <path d="M35 107H125" stroke="#0F172A" stroke-width="7" stroke-linecap="round"/>
  <path d="M57 117H103" stroke="#67E8F9" stroke-width="7" stroke-linecap="round"/>
  <path d="M83 36C91 26 103.5 24.4 113.5 31.1C122.9 37.4 126.2 49.8 121.4 60.2" stroke="#22D3EE" stroke-width="7" stroke-linecap="round"/>
  <path d="M101 50.5H136" stroke="#22D3EE" stroke-width="7" stroke-linecap="round"/>
  <circle cx="56" cy="38" r="7" fill="#A5F3FC"/>
</svg>
